<svg width="88" height="88" viewBox="0 0 88 88" fill="none" xmlns="http://www.w3.org/2000/svg">
<rect x="0.5" y="87.5" width="29" height="29" transform="rotate(-90 0.5 87.5)" fill="#312E81" stroke="#312E81"/>
<rect x="0.5" y="58.5" width="29" height="29" transform="rotate(-90 0.5 58.5)" fill="#312E81" stroke="#312E81"/>
<rect x="0.5" y="29.5" width="29" height="29" transform="rotate(-90 0.5 29.5)" fill="#312E81" stroke="#312E81"/>
<rect x="29.5" y="58.5" width="29" height="29" transform="rotate(-90 29.5 58.5)" fill="#312E81" stroke="#312E81"/>
<rect x="29.5" y="29.5" width="29" height="29" transform="rotate(-90 29.5 29.5)" fill="#312E81" stroke="#312E81"/>
<rect x="29.5" y="87.5" width="29" height="29" transform="rotate(-90 29.5 87.5)" fill="#312E81" stroke="#312E81"/>
<rect x="58.5" y="58.5" width="29" height="29" transform="rotate(-90 58.5 58.5)" fill="#312E81" stroke="#312E81"/>
<rect x="58.5" y="29.5" width="29" height="29" transform="rotate(-90 58.5 29.5)" fill="#312E81" stroke="#312E81"/>
<rect x="58.5" y="87.5" width="29" height="29" transform="rotate(-90 58.5 87.5)" fill="#312E81" stroke="#312E81"/>
</svg>
