<svg width="663" height="271" viewBox="0 0 663 271" fill="none" xmlns="http://www.w3.org/2000/svg">
<path d="M148.562 192.962H120.113V189.406H105.888V200.075H127.225L148.562 221.412V246.305L127.225 267.643H98.7755L77.4383 246.305V235.637H105.888V239.193H120.113V228.524H98.7755L77.4383 207.187V182.294L98.7755 160.957H127.225L148.562 182.294V192.962Z" fill="#F00053"/>
<path d="M155.675 182.294L177.012 160.957H205.462L226.799 182.294V246.305L205.462 267.643H177.012L155.675 246.305V182.294ZM184.124 189.406V239.193H198.349V189.406H184.124Z" fill="#F00053"/>
<path d="M305.035 196.519H276.586V189.406H262.361V239.193H276.586V232.081H305.035V246.305L283.698 267.643H255.248L233.911 246.305V182.294L255.248 160.957H283.698L305.035 182.294V196.519Z" fill="#F00053"/>
<path d="M340.597 267.643H312.148V160.957H340.597V267.643Z" fill="#F00053"/>
<path d="M376.159 200.075H404.609V228.524H376.159V239.193H411.721V267.643H347.71V160.957H411.721V189.406H376.159V200.075Z" fill="#F00053"/>
<path d="M468.621 189.406V267.643H440.171V189.406H418.834V160.957H489.958V189.406H468.621Z" fill="#F00053"/>
<path d="M518.408 228.524L497.07 207.187V160.957H525.52V200.075H539.745V160.957H568.194V207.187L546.857 228.524V267.643H518.408V228.524Z" fill="#F00053"/>
<path fill-rule="evenodd" clip-rule="evenodd" d="M151.476 195.876H117.2V192.32H108.801V197.162H128.432L151.476 220.205V247.512L128.432 270.556H97.5688L74.5251 247.512V232.724H108.801V236.28H117.2V231.438H97.5688L74.5251 208.394V181.087L97.5688 158.043H128.432L151.476 181.087V195.876ZM120.113 228.525V239.193H105.888V235.637H77.4383V246.306L98.7756 267.643H127.225L148.562 246.306V221.412L127.225 200.075H105.888V189.406H120.113V192.963H148.562V182.294L127.225 160.957H98.7756L77.4383 182.294V207.187L98.7756 228.525H120.113ZM152.762 181.087L175.805 158.043H206.668L229.712 181.087V247.512L206.668 270.556H175.805L152.762 247.512V181.087ZM184.124 239.193V189.406H198.349V239.193H184.124ZM195.436 236.28V192.32H187.038V236.28H195.436ZM307.949 199.432H273.673V192.32H265.274V236.28H273.673V229.168H307.949V247.512L284.905 270.556H254.042L230.998 247.512V181.087L254.042 158.043H284.905L307.949 181.087V199.432ZM276.586 239.193H262.361V189.406H276.586V196.519H305.035V182.294L283.698 160.957H255.249L233.911 182.294V246.306L255.249 267.643H283.698L305.035 246.306V232.081H276.586V239.193ZM343.511 270.556H309.235V158.043H343.511V270.556ZM407.522 197.162V231.438H379.073V236.28H414.635V270.556H344.797V158.043H414.635V192.32H379.073V197.162H407.522ZM376.159 189.406H411.721V160.957H347.71V267.643H411.721V239.193H376.159V228.525H404.609V200.075H376.159V189.406ZM471.534 270.556H437.258V192.32H415.921V158.043H492.871V192.32H471.534V270.556ZM440.171 189.406V267.643H468.621V189.406H489.958V160.957H418.834V189.406H440.171ZM494.157 208.394V158.043H528.433V197.162H536.832V158.043H571.108V208.394L549.77 229.731V270.556H515.494V229.731L494.157 208.394ZM518.408 228.525L497.07 207.187V160.957H525.52V200.075H539.745V160.957H568.194V207.187L546.857 228.525V267.643H518.408V228.525ZM177.012 160.957L155.675 182.294V246.306L177.012 267.643H205.462L226.799 246.306V182.294L205.462 160.957H177.012ZM340.597 267.643V160.957H312.148V267.643H340.597Z" fill="#0B0B13"/>
<path d="M148.562 181.31H120.113V177.753H105.888V188.422H127.225L148.562 209.759V234.653L127.225 255.99H98.7756L77.4384 234.653V223.984H105.888V227.54H120.113V216.872H98.7756L77.4384 195.534V170.641L98.7756 149.304H127.225L148.562 170.641V181.31Z" fill="#FFE666"/>
<path d="M155.675 170.641L177.012 149.304H205.462L226.799 170.641V234.653L205.462 255.99H177.012L155.675 234.653V170.641ZM184.124 177.753V227.54H198.349V177.753H184.124Z" fill="#FFE666"/>
<path d="M305.035 184.866H276.586V177.753H262.361V227.54H276.586V220.428H305.035V234.653L283.698 255.99H255.249L233.911 234.653V170.641L255.249 149.304H283.698L305.035 170.641V184.866Z" fill="#FFE666"/>
<path d="M340.597 255.99H312.148V149.304H340.597V255.99Z" fill="#FFE666"/>
<path d="M376.159 188.422H404.609V216.872H376.159V227.54H411.721V255.99H347.71V149.304H411.721V177.753H376.159V188.422Z" fill="#FFE666"/>
<path d="M468.621 177.753V255.99H440.171V177.753H418.834V149.304H489.958V177.753H468.621Z" fill="#FFE666"/>
<path d="M518.408 216.872L497.07 195.534V149.304H525.52V188.422H539.745V149.304H568.194V195.534L546.857 216.872V255.99H518.408V216.872Z" fill="#FFE666"/>
<path fill-rule="evenodd" clip-rule="evenodd" d="M151.476 184.223H117.2V180.667H108.801V185.509H128.432L151.476 208.553V235.859L128.432 258.903H97.5689L74.5251 235.859V221.071H108.801V224.627H117.2V219.785H97.5689L74.5251 196.741V169.434L97.5689 146.391H128.432L151.476 169.434V184.223ZM120.113 216.872V227.54H105.888V223.984H77.4384V234.653L98.7756 255.99H127.225L148.562 234.653V209.759L127.225 188.422H105.888V177.753H120.113V181.31H148.562V170.641L127.225 149.304H98.7756L77.4384 170.641V195.535L98.7756 216.872H120.113ZM152.762 169.434L175.805 146.391H206.668L229.712 169.434V235.859L206.668 258.903H175.805L152.762 235.859V169.434ZM184.125 227.54V177.753H198.349V227.54H184.125ZM195.436 224.627V180.667H187.038V224.627H195.436ZM307.949 187.779H273.673V180.667H265.274V224.627H273.673V217.515H307.949V235.859L284.905 258.903H254.042L230.998 235.859V169.434L254.042 146.391H284.905L307.949 169.434V187.779ZM276.586 227.54H262.361V177.753H276.586V184.866H305.035V170.641L283.698 149.304H255.249L233.911 170.641V234.653L255.249 255.99H283.698L305.035 234.653V220.428H276.586V227.54ZM343.511 258.903H309.235V146.391H343.511V258.903ZM407.522 185.509V219.785H379.073V224.627H414.635V258.903H344.797V146.391H414.635V180.667H379.073V185.509H407.522ZM376.16 177.753H411.722V149.304H347.71V255.99H411.722V227.54H376.16V216.872H404.609V188.422H376.16V177.753ZM471.534 258.903H437.258V180.667H415.921V146.391H492.871V180.667H471.534V258.903ZM440.171 177.753V255.99H468.621V177.753H489.958V149.304H418.834V177.753H440.171ZM494.157 196.741V146.391H528.433V185.509H536.832V146.391H571.108V196.741L549.771 218.078V258.903H515.494V218.078L494.157 196.741ZM518.408 216.872L497.07 195.535V149.304H525.52V188.422H539.745V149.304H568.195V195.535L546.857 216.872V255.99H518.408V216.872ZM177.012 149.304L155.675 170.641V234.653L177.012 255.99H205.462L226.799 234.653V170.641L205.462 149.304H177.012ZM340.597 255.99V149.304H312.148V255.99H340.597Z" fill="#0B0B13"/>
<g clip-path="url(#clip0)">
<path d="M657.538 27.3115H639.33V29.1323H657.538V27.3115Z" fill="#F7FEFF"/>
<path d="M639.33 16.3872H635.688V18.208H637.509V27.3119H639.33V16.3872Z" fill="#F7FEFF"/>
<path d="M657.538 16.3872V27.3119H659.358V18.208H661.179V16.3872H657.538Z" fill="#F7FEFF"/>
<path d="M655.717 14.5664H653.896V16.3872H655.717V14.5664Z" fill="#25BAA6"/>
<path d="M642.971 14.5664H641.151V16.3872H642.971V14.5664Z" fill="#25BAA6"/>
<path d="M663 12.7456H661.179V16.3872H663V12.7456Z" fill="#F7FEFF"/>
<path d="M661.179 12.7456H659.358V14.5664H655.717V25.491H641.151V14.5664H637.509V12.7456H635.688V16.3872H639.33V27.3118H657.538V16.3872H661.179V12.7456Z" fill="#231E2B"/>
<path d="M659.358 12.7456H657.538V14.5664H659.358V12.7456Z" fill="#9AF7EA"/>
<path d="M655.717 12.7455V10.9247H653.896V9.10395H652.075V7.28318H650.254V5.4624H646.613V7.28318H644.792V9.10395H642.971V10.9247H641.151V12.7455H639.33V14.5663H642.971V16.3871H641.151V25.4909H655.717V16.3871H653.896V14.5663H657.538V12.7455H655.717Z" fill="#5FDFCE"/>
<path d="M639.33 12.7456H637.509V14.5664H639.33V12.7456Z" fill="#9AF7EA"/>
<path d="M635.688 12.7456H633.868V16.3872H635.688V12.7456Z" fill="#F7FEFF"/>
<path d="M661.179 10.9248H659.358V12.7456H661.179V10.9248Z" fill="#F7FEFF"/>
<path d="M659.358 10.9248H657.538V12.7456H659.358V10.9248Z" fill="#231E2B"/>
<path d="M657.538 10.9248H655.717V12.7456H657.538V10.9248Z" fill="#9AF7EA"/>
<path d="M641.151 10.9248H639.33V12.7456H641.151V10.9248Z" fill="#9AF7EA"/>
<path d="M639.33 10.9248H637.509V12.7456H639.33V10.9248Z" fill="#231E2B"/>
<path d="M637.509 10.9248H635.688V12.7456H637.509V10.9248Z" fill="#F7FEFF"/>
<path d="M659.358 9.104H657.538V10.9248H659.358V9.104Z" fill="#F7FEFF"/>
<path d="M657.538 9.104H655.717V10.9248H657.538V9.104Z" fill="#231E2B"/>
<path d="M655.717 9.104H653.896V10.9248H655.717V9.104Z" fill="#9AF7EA"/>
<path d="M642.971 9.104H641.151V10.9248H642.971V9.104Z" fill="#9AF7EA"/>
<path d="M641.151 9.104H639.33V10.9248H641.151V9.104Z" fill="#231E2B"/>
<path d="M639.33 9.104H637.509V10.9248H639.33V9.104Z" fill="#F7FEFF"/>
<path d="M657.538 7.2832H655.717V9.10398H657.538V7.2832Z" fill="#F7FEFF"/>
<path d="M655.717 7.2832H653.896V9.10398H655.717V7.2832Z" fill="#231E2B"/>
<path d="M653.896 7.2832H652.075V9.10398H653.896V7.2832Z" fill="#9AF7EA"/>
<path d="M644.792 7.2832H642.971V9.10398H644.792V7.2832Z" fill="#9AF7EA"/>
<path d="M642.971 7.2832H641.151V9.10398H642.971V7.2832Z" fill="#231E2B"/>
<path d="M641.151 7.2832H639.33V9.10398H641.151V7.2832Z" fill="#F7FEFF"/>
<path d="M655.717 5.4624H653.896V7.28318H655.717V5.4624Z" fill="#F7FEFF"/>
<path d="M653.896 5.4624H652.075V7.28318H653.896V5.4624Z" fill="#231E2B"/>
<path d="M652.075 5.4624H650.255V7.28318H652.075V5.4624Z" fill="#9AF7EA"/>
<path d="M646.613 5.4624H644.792V7.28318H646.613V5.4624Z" fill="#9AF7EA"/>
<path d="M644.792 5.4624H642.971V7.28318H644.792V5.4624Z" fill="#231E2B"/>
<path d="M642.971 5.4624H641.151V7.28318H642.971V5.4624Z" fill="#F7FEFF"/>
<path d="M653.896 3.6416H652.075V5.46238H653.896V3.6416Z" fill="#F7FEFF"/>
<path d="M652.075 3.6416H650.255V5.46238H652.075V3.6416Z" fill="#231E2B"/>
<path d="M650.255 3.6416H646.613V5.46238H650.255V3.6416Z" fill="#9AF7EA"/>
<path d="M646.613 3.6416H644.792V5.46238H646.613V3.6416Z" fill="#231E2B"/>
<path d="M644.792 3.6416H642.971V5.46238H644.792V3.6416Z" fill="#F7FEFF"/>
<path d="M652.075 1.8208H650.255V3.64158H652.075V1.8208Z" fill="#F7FEFF"/>
<path d="M650.255 1.8208H646.613V3.64158H650.255V1.8208Z" fill="#231E2B"/>
<path d="M646.613 1.8208H644.792V3.64158H646.613V1.8208Z" fill="#F7FEFF"/>
<path d="M650.255 0H646.613V1.82078H650.255V0Z" fill="#F7FEFF"/>
</g>
<path d="M27.9133 134.738V28.0518H56.3629V106.288H91.9249V134.738H27.9133Z" fill="#8543FF"/>
<path d="M127.487 67.17H155.937V95.6196H127.487V106.288H163.049V134.738H99.0373V28.0518H163.049V56.5014H127.487V67.17Z" fill="#8543FF"/>
<path d="M170.161 28.0518H198.611V106.288H212.836V28.0518H241.285V106.288L219.948 134.738H191.499L170.161 106.288V28.0518Z" fill="#8543FF"/>
<path d="M276.848 67.17H305.297V95.6196H276.848V106.288H312.41V134.738H248.398V28.0518H312.41V56.5014H276.848V67.17Z" fill="#8543FF"/>
<path d="M319.522 134.738V28.0518H347.972V106.288H383.534V134.738H319.522Z" fill="#8543FF"/>
<path d="M461.77 95.6196H390.646V67.17H461.77V95.6196Z" fill="#8543FF"/>
<path d="M468.883 28.0518H497.332V106.288H511.557V28.0518H540.007V113.401L518.669 134.738H490.22L468.883 113.401V28.0518Z" fill="#8543FF"/>
<path d="M596.906 28.0518L618.243 49.389V74.2824L596.906 95.6196H575.569V134.738H547.119V28.0518H596.906ZM589.793 56.5014H575.569V67.17H589.793V56.5014Z" fill="#8543FF"/>
<path fill-rule="evenodd" clip-rule="evenodd" d="M25 137.651V25.1382H59.2761V103.375H94.8382V137.651H25ZM56.3629 106.288V28.0514H27.9132V134.738H91.9249V106.288H56.3629ZM158.85 64.2564V98.5325H130.4V103.375H165.962V137.651H96.1241V25.1382H165.962V59.4143H130.4V64.2564H158.85ZM127.487 56.5011H163.049V28.0514H99.0373V134.738H163.049V106.288H127.487V95.6193H155.937V67.1697H127.487V56.5011ZM167.248 25.1382H201.524V103.375H209.923V25.1382H244.199V107.259L221.405 137.651H190.042L167.248 107.259V25.1382ZM212.836 106.288H198.611V28.0514H170.161V106.288L191.499 134.738H219.948L241.285 106.288V28.0514H212.836V106.288ZM308.21 64.2564V98.5325H279.761V103.375H315.323V137.651H245.485V25.1382H315.323V59.4143H279.761V64.2564H308.21ZM276.848 56.5011H312.41V28.0514H248.398V134.738H312.41V106.288H276.848V95.6193H305.297V67.1697H276.848V56.5011ZM316.609 137.651V25.1382H350.885V103.375H386.447V137.651H316.609ZM347.972 106.288V28.0514H319.522V134.738H383.534V106.288H347.972ZM464.683 98.5325H387.733V64.2564H464.683V98.5325ZM465.969 25.1382H500.245V103.375H508.644V25.1382H542.92V114.607L519.876 137.651H489.013L465.969 114.607V25.1382ZM511.557 106.288H497.332V28.0514H468.883V113.4L490.22 134.738H518.669L540.007 113.4V28.0514H511.557V106.288ZM598.113 25.1382L621.156 48.1819V75.4888L598.113 98.5325H578.482V137.651H544.206V25.1382H598.113ZM575.569 95.6193H596.906L618.243 74.2821V49.3886L596.906 28.0514H547.119V134.738H575.569V95.6193ZM575.569 56.5011H589.793V67.1697H575.569V56.5011ZM578.482 64.2564H586.88V59.4143H578.482V64.2564ZM461.77 95.6193V67.1697H390.646V95.6193H461.77Z" fill="#0B0B13"/>
<path d="M27.9133 123.085V16.3984H56.3629V94.6349H91.9249V123.085H27.9133Z" fill="#5FDFCE"/>
<path d="M127.487 55.5167H155.937V83.9663H127.487V94.6349H163.049V123.085H99.0373V16.3984H163.049V44.8481H127.487V55.5167Z" fill="#5FDFCE"/>
<path d="M170.161 16.3984H198.611V94.6349H212.836V16.3984H241.285V94.6349L219.948 123.085H191.499L170.161 94.6349V16.3984Z" fill="#5FDFCE"/>
<path d="M276.848 55.5167H305.297V83.9663H276.848V94.6349H312.41V123.085H248.398V16.3984H312.41V44.8481H276.848V55.5167Z" fill="#5FDFCE"/>
<path d="M319.522 123.085V16.3984H347.972V94.6349H383.534V123.085H319.522Z" fill="#5FDFCE"/>
<path d="M461.77 83.9663H390.646V55.5167H461.77V83.9663Z" fill="#5FDFCE"/>
<path d="M468.883 16.3984H497.332V94.6349H511.557V16.3984H540.007V101.747L518.669 123.085H490.22L468.883 101.747V16.3984Z" fill="#5FDFCE"/>
<path d="M596.906 16.3984L618.243 37.7357V62.6291L596.906 83.9663H575.569V123.085H547.119V16.3984H596.906ZM589.793 44.8481H575.569V55.5167H589.793V44.8481Z" fill="#5FDFCE"/>
<path fill-rule="evenodd" clip-rule="evenodd" d="M25 125.998V13.4854H59.2761V91.7218H94.8382V125.998H25ZM56.3629 94.6351V16.3986H27.9132V123.085H91.9249V94.6351H56.3629ZM158.85 52.6036V86.8797H130.4V91.7218H165.962V125.998H96.1241V13.4854H165.962V47.7615H130.4V52.6036H158.85ZM127.487 44.8482H163.049V16.3986H99.0373V123.085H163.049V94.6351H127.487V83.9665H155.937V55.5168H127.487V44.8482ZM167.248 13.4854H201.524V91.7218H209.923V13.4854H244.199V95.6062L221.405 125.998H190.042L167.248 95.6062V13.4854ZM212.836 94.6351H198.611V16.3986H170.161V94.6351L191.499 123.085H219.948L241.285 94.6351V16.3986H212.836V94.6351ZM308.21 52.6036V86.8797H279.761V91.7218H315.323V125.998H245.485V13.4854H315.323V47.7615H279.761V52.6036H308.21ZM276.848 44.8482H312.41V16.3986H248.398V123.085H312.41V94.6351H276.848V83.9665H305.297V55.5168H276.848V44.8482ZM316.609 125.998V13.4854H350.885V91.7218H386.447V125.998H316.609ZM347.972 94.6351V16.3986H319.522V123.085H383.534V94.6351H347.972ZM464.683 86.8797H387.733V52.6036H464.683V86.8797ZM465.969 13.4854H500.245V91.7218H508.644V13.4854H542.92V102.954L519.876 125.998H489.013L465.969 102.954V13.4854ZM511.557 94.6351H497.332V16.3986H468.883V101.747L490.22 123.085H518.669L540.007 101.747V16.3986H511.557V94.6351ZM598.113 13.4854L621.156 36.5291V63.8359L598.113 86.8797H578.482V125.998H544.206V13.4854H598.113ZM575.569 83.9665H596.906L618.243 62.6292V37.7358L596.906 16.3986H547.119V123.085H575.569V83.9665ZM575.569 44.8482H589.793V55.5168H575.569V44.8482ZM578.482 52.6036H586.88V47.7615H578.482V52.6036ZM461.77 83.9665V55.5168H390.646V83.9665H461.77Z" fill="#0B0B13"/>
<defs>
<clipPath id="clip0">
<rect width="29.1324" height="29.1324" fill="white" transform="translate(633.868)"/>
</clipPath>
</defs>
</svg>
